<svg width="169" height="36" viewBox="0 0 169 36" fill="none" xmlns="http://www.w3.org/2000/svg">
<path d="M15.4286 0.115874C16.6802 -0.155481 18.0261 0.0523656 19.1482 0.711989C20.892 1.71802 22.0033 3.82103 21.9399 5.93702C21.9237 6.8781 21.6554 7.7932 21.2629 8.62892C17.6148 16.6137 13.9761 24.6042 10.3429 32.5977C9.68473 34.0887 8.43049 35.3083 6.92809 35.7356C5.44322 36.1801 3.75606 35.9867 2.4681 35.0456C0.167303 33.533 -0.674255 30.0703 0.584036 27.5271C4.08378 19.8642 7.57949 12.1984 11.0684 4.52972C11.3746 3.88886 11.6376 3.22202 11.995 2.61147C12.7583 1.32687 14.0274 0.393003 15.4286 0.115874Z" fill="#FB923C"/>
<path d="M22.2825 15.9598C23.8914 15.7592 25.5732 16.3683 26.7168 17.5995C27.2509 18.1668 27.6542 18.861 27.9589 19.5943C29.135 22.328 30.338 25.0488 31.5275 27.7753C31.9995 28.8405 32.0764 30.0501 31.9388 31.2077C31.6704 33.0076 30.5335 34.6227 29.0001 35.4079C26.8598 36.5929 24.0222 35.942 22.4888 33.966C21.9237 33.302 21.6108 32.4591 21.2575 31.6595C20.1651 29.1711 19.0781 26.6798 18.0046 24.1813C17.3033 22.559 17.3127 20.5801 18.1367 19.0097C18.9257 17.3296 20.5468 16.1735 22.2825 15.9598Z" fill="#FB923C"/>
<path d="M105.94 0.000834241C107.798 0.00276093 109.656 0.00276093 111.513 0.00276093C111.515 9.09097 111.519 18.1792 111.512 27.2674C109.654 27.2655 107.798 27.2655 105.94 27.2674C105.938 26.8686 105.936 26.4678 105.938 26.0709C104.007 27.5545 101.481 28.0304 99.1607 27.4986C96.8968 27.0458 94.8925 25.5102 93.6892 23.4545C92.0781 20.7089 91.8349 17.1696 92.912 14.1639C93.5905 12.3066 94.8084 10.6381 96.4378 9.60539C99.2942 7.76155 103.222 7.79623 105.94 9.9233C105.936 6.61517 105.936 3.30896 105.94 0.000834241ZM100.523 14.1119C98.8736 14.6398 97.6776 16.4452 97.844 18.2678C97.9135 20.2889 99.6617 22.0017 101.565 22.0191C103.294 22.1173 104.967 20.7995 105.386 19.0346C105.813 17.4278 105.173 15.5897 103.87 14.6475C102.915 13.9289 101.639 13.7285 100.523 14.1119Z" fill="#FB923C"/>
<path d="M151.556 0.0162478C153.416 -0.016506 155.278 0.0123944 157.139 0.000834241C157.147 5.29924 157.136 10.5976 157.145 15.896C158.564 13.4915 159.974 11.0812 161.393 8.67673C163.447 8.6748 165.5 8.66324 167.554 8.68058C165.723 11.6458 163.865 14.5917 162.06 17.5742C164.052 20.7976 166.027 24.0305 168 27.2674C165.855 27.2674 163.712 27.2635 161.568 27.2693C160.089 24.7261 158.619 22.179 157.141 19.6358C157.139 22.179 157.145 24.7241 157.139 27.2674C155.281 27.2674 153.425 27.2635 151.567 27.2693C151.551 18.185 151.577 9.1006 151.556 0.0162478Z" fill="#FB923C"/>
<path d="M85.8917 0.262864C87.4863 -0.424965 89.4723 0.648203 89.8746 2.41113C90.3628 4.11432 89.2455 6.06991 87.585 6.39552C86.027 6.77508 84.3117 5.66146 83.988 4.00065C83.6003 2.47856 84.4799 0.769584 85.8917 0.262864Z" fill="#FB923C"/>
<path d="M44.1536 9.62466C47.0137 7.76155 50.9527 7.7943 53.6847 9.91752C53.6811 9.50328 53.6811 9.08711 53.6811 8.67288H59.2604C59.2623 14.871 59.2623 21.0673 59.2604 27.2655C57.4006 27.2674 55.5409 27.2674 53.6829 27.2655C53.6811 26.8686 53.6811 26.4697 53.6829 26.0748C51.9329 27.4003 49.7018 27.9475 47.5733 27.6161C44.9143 27.3078 42.495 25.5334 41.2167 23.071C39.8141 20.4007 39.6312 17.0887 40.6315 14.2352C41.2953 12.3567 42.5206 10.6747 44.1536 9.62466ZM48.2243 14.1293C46.5858 14.6726 45.4629 16.4895 45.6111 18.2851C45.6915 19.6801 46.5291 20.9844 47.7177 21.5991C48.7765 22.1636 50.0895 22.1636 51.1465 21.5971C52.22 21.0365 53.0246 19.9171 53.202 18.6628C53.4708 17.1426 52.8088 15.4991 51.5964 14.6341C50.629 13.9212 49.3398 13.717 48.2243 14.1293Z" fill="#FB923C"/>
<path d="M66.8605 9.05821C69.5779 7.80779 72.9537 8.02936 75.3548 9.93293C75.3511 9.51099 75.3548 9.08711 75.3639 8.66517C77.2182 8.68058 79.0725 8.66902 80.9268 8.67095C80.9359 13.7285 80.9286 18.7861 80.9304 23.8417C80.9158 25.8012 81.0712 27.8203 80.4312 29.7008C79.707 32.0803 77.9661 34.0667 75.79 35.0512C73.142 36.267 70.0479 36.2824 67.3378 35.2805C65.3427 34.5561 63.5579 33.0879 62.6197 31.0687C64.1046 30.2171 65.6371 29.4638 67.1311 28.6334C67.9376 29.9185 69.4133 30.5312 70.8287 30.6198C72.1875 30.7585 73.74 30.3732 74.5757 29.1478C75.2578 28.1883 75.3237 26.9514 75.3712 25.8012C71.8071 28.4195 66.3649 27.724 63.642 24.1038C61.6286 21.4835 61.2153 17.7572 62.201 14.5994C62.9416 12.1852 64.6368 10.0755 66.8605 9.05821ZM69.9802 14.1023C68.3746 14.6052 67.2024 16.3006 67.2573 18.0694C67.2573 19.8939 68.6069 21.5663 70.2929 21.9304C71.6718 22.2638 73.2006 21.705 74.0856 20.5413C74.9433 19.4489 75.1737 17.8728 74.6983 16.553C74.0472 14.6032 71.851 13.428 69.9802 14.1023Z" fill="#FB923C"/>
<path d="M122.383 8.33378C125.3 7.99853 128.332 9.17767 130.342 11.428C132.403 13.6418 133.24 16.9172 132.805 19.9517C128.626 19.9421 124.45 19.9402 120.273 19.9517C121.602 22.6395 125.552 22.7011 127.326 20.5008C128.939 21.2657 130.547 22.0499 132.15 22.8398C130.76 25.6201 127.913 27.3695 124.985 27.6508C122.021 27.9225 118.819 27.1499 116.63 24.9245C113.6 21.8996 113.092 16.5993 115.304 12.9097C116.804 10.3163 119.525 8.60929 122.383 8.33378ZM120.313 16.0367C122.427 16.0483 124.539 16.0463 126.653 16.0367C125.986 14.5223 124.314 13.6572 122.769 13.9848C121.679 14.1736 120.811 15.0329 120.313 16.0348V16.0367Z" fill="#FB923C"/>
<path d="M136.68 10.1892C138.09 8.81352 140.069 8.19698 141.969 8.28368C143.858 8.32992 145.827 9.01005 147.12 10.5186C147.72 11.1949 148.089 12.0523 148.354 12.927C146.784 13.3104 145.218 13.7112 143.647 14.0888C143.17 12.8384 141.499 12.4511 140.533 13.2815C139.973 13.7613 140.239 14.7593 140.919 14.9385C143.102 15.7901 145.606 15.8556 147.526 17.3796C148.722 18.2697 149.285 19.84 149.276 21.3447C149.298 22.9169 148.801 24.5488 147.696 25.6432C146.277 27.0901 144.245 27.6065 142.327 27.697C140.284 27.7587 138.116 27.4832 136.378 26.2617C135.12 25.3946 134.306 23.9111 134.14 22.3447C135.97 22.0114 137.795 21.6511 139.624 21.3004C139.836 22.8938 141.685 23.441 142.954 22.9632C143.534 22.7608 143.931 21.9613 143.581 21.3871C143.02 20.8072 142.177 20.7552 141.455 20.5394C139.405 20.0789 137.046 19.5895 135.786 17.6301C134.427 15.345 134.76 12.0215 136.68 10.1892Z" fill="#FB923C"/>
<path d="M84.1453 8.66324C86.0142 8.68444 87.8831 8.6671 89.7521 8.67095C89.7557 14.871 89.7557 21.0692 89.7521 27.2674C87.8776 27.2655 86.0051 27.2674 84.1325 27.2674C84.138 21.0654 84.1124 14.8633 84.1453 8.66324Z" fill="#FB923C"/>
</svg>
